<?xml version="1.0" encoding="UTF-8"?>
<svg id="_Слой_1" data-name=" Слой 1" xmlns="http://www.w3.org/2000/svg" viewBox="0 0 500 500">
  <defs>
    <style>
      .cls-1 {
        fill: none;
      }

      .cls-2 {
        fill: #4157a3;
      }
    </style>
  </defs>
  <rect class="cls-1" width="500" height="500"/>
  <g>
    <path class="cls-2" d="M288.29,363.01l-70.96-73.44c-.72-.72-1.95-.21-1.95.81v71.59c0,.84-.68,1.52-1.52,1.52h-93.56c-.84,0-1.52-.68-1.52-1.52V110.72c0-.4-.16-.79-.45-1.08L39.14,30.49c-.96-.96-2.6-.28-2.6,1.08l.47,405.13c0,.63.51,1.14,1.14,1.14h249.04c.84,0,1.52-.68,1.52-1.52v-72.25c0-.39-.16-.77-.43-1.06h.01Z"/>
    <path class="cls-2" d="M462.98,63.3c0-.63-.51-1.14-1.14-1.14h-249.04c-.84,0-1.52.68-1.52,1.52v72.25c0,.39.16.77.43,1.06l70.96,73.44c.72.72,1.95.21,1.95-.81v-71.59c0-.84.68-1.52,1.52-1.52h93.56c.84,0,1.52.68,1.52,1.52v251.25c0,.4.16.79.45,1.08l79.19,79.15c.96.96,2.6.28,2.6-1.08l-.47-405.13h0Z"/>
  </g>
</svg>