<svg width="100" height="80" viewBox="0 0 100 80" fill="none" xmlns="http://www.w3.org/2000/svg">
<path d="M58.083 44.625C54.6455 44.625 51.7236 43.4219 49.3174 41.0156C46.9111 38.6094 45.708 35.6875 45.708 32.25C45.708 28.8125 46.9111 25.8906 49.3174 23.4844C51.7236 21.0781 54.6455 19.875 58.083 19.875C61.5205 19.875 64.4424 21.0781 66.8486 23.4844C69.2549 25.8906 70.458 28.8125 70.458 32.25C70.458 35.6875 69.2549 38.6094 66.8486 41.0156C64.4424 43.4219 61.5205 44.625 58.083 44.625ZM29.208 57C26.9393 57 24.9978 56.1929 23.3835 54.5786C21.7693 52.9644 20.9608 51.0215 20.958 48.75V15.75C20.958 13.4812 21.7665 11.5397 23.3835 9.9255C25.0005 8.31125 26.942 7.50275 29.208 7.5H86.958C89.2268 7.5 91.1696 8.3085 92.7866 9.9255C94.4036 11.5425 95.2108 13.484 95.208 15.75V48.75C95.208 51.0187 94.4009 52.9616 92.7866 54.5786C91.1724 56.1956 89.2295 57.0028 86.958 57H29.208ZM37.458 48.75H78.708C78.708 46.4813 79.5165 44.5398 81.1335 42.9255C82.7505 41.3113 84.692 40.5028 86.958 40.5V24C84.6893 24 82.7478 23.1929 81.1335 21.5786C79.5193 19.9644 78.7108 18.0215 78.708 15.75H37.458C37.458 18.0188 36.6509 19.9616 35.0366 21.5786C33.4224 23.1956 31.4795 24.0028 29.208 24V40.5C31.4768 40.5 33.4196 41.3085 35.0366 42.9255C36.6536 44.5425 37.4608 46.484 37.458 48.75ZM78.708 73.5H12.708C10.4393 73.5 8.49776 72.6929 6.88351 71.0786C5.26926 69.4644 4.46076 67.5215 4.45801 65.25V24C4.45801 22.8313 4.85401 21.8523 5.64601 21.063C6.43801 20.2738 7.41701 19.8778 8.58301 19.875C9.74901 19.8722 10.7294 20.2683 11.5241 21.063C12.3189 21.8578 12.7135 22.8368 12.708 24V65.25H78.708C79.8768 65.25 80.8571 65.646 81.6491 66.438C82.4411 67.23 82.8358 68.209 82.833 69.375C82.8303 70.541 82.4343 71.5214 81.645 72.3161C80.8558 73.1109 79.8768 73.5055 78.708 73.5Z" fill="#2D54DD"/>
</svg>
