<svg width="24" height="24" viewBox="0 0 24 24" fill="none" xmlns="http://www.w3.org/2000/svg">
<path d="M20.4844 15.8716L19.6412 17.1284L20.766 18.0714H18.2283C17.9139 16.7195 16.8226 15.7143 15.5156 15.7143H8.48438C7.17736 15.7143 6.08606 16.7195 5.77167 18.0714H4.21875C2.66766 18.0714 1.40625 16.6619 1.40625 14.9286C1.40625 13.1953 2.66766 11.7857 4.21875 11.7857H5.77167C6.08606 13.1376 7.17736 14.1429 8.48438 14.1429H15.5156C16.8226 14.1429 17.9139 13.1376 18.2283 11.7857H19.7812C22.1076 11.7857 24 9.67104 24 7.07143C24 4.47181 22.1076 2.35714 19.7812 2.35714H18.2283C17.9139 1.00524 16.8226 0 15.5156 0H8.48438C7.17736 0 6.08606 1.00524 5.77167 2.35714H5.15625L2.53087 0.157352L1.68788 1.41408L2.81269 2.35714H0V3.92857H2.81269L1.68788 4.87164L2.53087 6.12836L5.15625 3.92857H5.77167C6.08606 5.28047 7.17736 6.28571 8.48438 6.28571H15.5156C16.8226 6.28571 17.9139 5.28047 18.2283 3.92857H19.7812C21.3323 3.92857 22.5938 5.33814 22.5938 7.07143C22.5938 8.80471 21.3323 10.2143 19.7812 10.2143H18.2283C17.9139 8.86239 16.8226 7.85714 15.5156 7.85714H8.48438C7.17736 7.85714 6.08606 8.86239 5.77167 10.2143H4.21875C1.89239 10.2143 0 12.329 0 14.9286C0 17.5282 1.89239 19.6429 4.21875 19.6429H5.77167C6.08606 20.9948 7.17736 22 8.48438 22H15.5156C16.8226 22 17.9139 20.9948 18.2283 19.6429H20.766L19.6412 20.5859L20.4844 21.8426L24 18.8571L20.4844 15.8716Z" fill="#7A8EA4"/>
</svg>
