<svg width="28" height="28" viewBox="0 0 28 28" fill="none" xmlns="http://www.w3.org/2000/svg">
<path d="M13.9974 0.664062C6.6374 0.664062 0.664062 6.6374 0.664062 13.9974C0.664062 21.3574 6.6374 27.3307 13.9974 27.3307C21.3574 27.3307 27.3307 21.3574 27.3307 13.9974C27.3307 6.6374 21.3574 0.664062 13.9974 0.664062ZM13.9974 15.3307C13.2641 15.3307 12.6641 14.7307 12.6641 13.9974V8.66406C12.6641 7.93073 13.2641 7.33073 13.9974 7.33073C14.7307 7.33073 15.3307 7.93073 15.3307 8.66406V13.9974C15.3307 14.7307 14.7307 15.3307 13.9974 15.3307ZM15.3307 20.6641H12.6641V17.9974H15.3307V20.6641Z" fill="#CE2E2E"/>
</svg>
