<svg width="18" height="20" viewBox="0 0 18 20" fill="none" xmlns="http://www.w3.org/2000/svg">
<path d="M15 -0.000244141H3C2.20436 -0.000244141 1.44129 0.315826 0.878684 0.878436C0.316075 1.44104 4.71977e-06 2.20411 4.71977e-06 2.99976V17.7998C-0.000729577 18.1378 0.0842283 18.4705 0.246942 18.7668C0.409657 19.0631 0.644818 19.3133 0.930458 19.4941C1.2161 19.6749 1.5429 19.7803 1.88033 19.8005C2.21776 19.8207 2.55482 19.7551 2.86 19.6098C3.1 19.4898 3.31 19.3598 3.53 19.2298C3.95312 18.9121 4.47107 18.7465 5 18.7598C5.53201 18.7466 6.05309 18.912 6.48 19.2298C7.21843 19.7444 8.10003 20.0138 9 19.9998C9.90008 20.0145 10.7819 19.745 11.52 19.2298C11.9466 18.9113 12.4679 18.7458 13 18.7598C13.5292 18.7449 14.0476 18.9106 14.47 19.2298C14.6866 19.3649 14.9103 19.4884 15.14 19.5998C15.4444 19.7447 15.7806 19.8104 16.1172 19.7907C16.4538 19.7709 16.7799 19.6664 17.0653 19.4868C17.3507 19.3072 17.586 19.0583 17.7494 18.7634C17.9129 18.4684 17.9991 18.1369 18 17.7998V2.99976C18 2.20411 17.6839 1.44104 17.1213 0.878436C16.5587 0.315826 15.7957 -0.000244141 15 -0.000244141ZM9 13.9998H5C4.73479 13.9998 4.48043 13.8944 4.2929 13.7069C4.10536 13.5193 4 13.265 4 12.9998C4 12.7345 4.10536 12.4802 4.2929 12.2926C4.48043 12.1051 4.73479 11.9998 5 11.9998H9C9.26522 11.9998 9.51958 12.1051 9.70711 12.2926C9.89465 12.4802 10 12.7345 10 12.9998C10 13.265 9.89465 13.5193 9.70711 13.7069C9.51958 13.8944 9.26522 13.9998 9 13.9998ZM13 9.99976H5C4.73479 9.99976 4.48043 9.8944 4.2929 9.70686C4.10536 9.51933 4 9.26497 4 8.99976C4 8.73454 4.10536 8.48019 4.2929 8.29265C4.48043 8.10511 4.73479 7.99976 5 7.99976H13C13.2652 7.99976 13.5196 8.10511 13.7071 8.29265C13.8946 8.48019 14 8.73454 14 8.99976C14 9.26497 13.8946 9.51933 13.7071 9.70686C13.5196 9.8944 13.2652 9.99976 13 9.99976ZM13 5.99976H5C4.73479 5.99976 4.48043 5.8944 4.2929 5.70686C4.10536 5.51933 4 5.26497 4 4.99976C4 4.73454 4.10536 4.48019 4.2929 4.29265C4.48043 4.10511 4.73479 3.99976 5 3.99976H13C13.2652 3.99976 13.5196 4.10511 13.7071 4.29265C13.8946 4.48019 14 4.73454 14 4.99976C14 5.26497 13.8946 5.51933 13.7071 5.70686C13.5196 5.8944 13.2652 5.99976 13 5.99976Z" fill="#7A8EA4"/>
</svg>
