<svg width="22" height="16" viewBox="0 0 22 16" fill="none" xmlns="http://www.w3.org/2000/svg">
<path d="M1.33392 0.159547C0.976426 -0.0966972 0.457373 -0.0373235 0.175503 0.287669C-0.106367 0.612662 -0.0410561 1.08453 0.316438 1.34077L20.6661 15.8405C21.0236 16.0967 21.5426 16.0373 21.8245 15.7123C22.1064 15.3873 22.0411 14.9155 21.6836 14.6592L18.0674 12.0843C19.4286 10.8156 20.3498 9.39372 20.8139 8.38437C20.9273 8.1375 20.9273 7.8625 20.8139 7.61563C20.3017 6.50003 19.2258 4.87507 17.6171 3.51885C16.0015 2.15013 13.7775 1.00015 11 1.00015C8.65567 1.00015 6.7032 1.82201 5.18041 2.90011L1.33392 0.159547ZM7.66912 4.67195C8.54567 3.94384 9.71783 3.5001 11 3.5001C13.7328 3.5001 15.9499 5.51568 15.9499 8C15.9499 8.77811 15.7334 9.50934 15.3518 10.1468L14.0249 9.2031C14.3137 8.59999 14.3893 7.90938 14.1899 7.22502C13.8084 5.92817 12.5468 5.05631 11.1444 5.00319C10.945 4.99694 10.8281 5.19381 10.89 5.36881C10.9622 5.5688 11.0034 5.7813 11.0034 6.00317C11.0034 6.32191 10.9209 6.62191 10.7766 6.88752L7.67256 4.67507L7.66912 4.67195ZM12.8218 12.1843C12.2581 12.3874 11.6428 12.4999 11 12.4999C8.26723 12.4999 6.05009 10.4843 6.05009 8C6.05009 7.78438 6.06727 7.57501 6.09821 7.36876L2.85671 5.04694C2.07297 5.97504 1.51267 6.90002 1.18611 7.61563C1.07267 7.8625 1.07267 8.1375 1.18611 8.38437C1.69829 9.49997 2.77421 11.1249 4.38293 12.4812C5.99853 13.8499 8.22255 14.9998 11 14.9998C12.6431 14.9998 14.0903 14.5967 15.338 13.9842L12.8218 12.1843Z" fill="#322F35"/>
</svg>
