<svg width="24" height="24" viewBox="0 0 24 24" fill="none" xmlns="http://www.w3.org/2000/svg">
<mask id="mask0_706_24455" style="maskType:alpha" maskUnits="userSpaceOnUse" x="0" y="0" width="24" height="24">
<rect width="24" height="24" fill="#D9D9D9"/>
</mask>
<g mask="url(#mask0_706_24455)">
<path d="M17.9651 19.1768L18.1419 19.3536L18.3187 19.1768L19.1768 18.3185L19.3535 18.1417L19.1768 17.9649L14.2193 13.0075C14.4991 12.6335 14.7261 12.2079 14.9015 11.7326L14.9015 11.7326C15.1072 11.1747 15.2097 10.5899 15.2097 9.97977C15.2097 8.52317 14.7021 7.28118 13.6896 6.2692L13.6895 6.26919C12.6769 5.25727 11.4348 4.75 9.97862 4.75C8.52225 4.75 7.28051 5.25758 6.26879 6.27014L6.26878 6.27015C5.25713 7.28279 4.75 8.52484 4.75 9.98099C4.75 11.4373 5.25728 12.679 6.2693 13.6907C7.28131 14.7024 8.52329 15.2095 9.97984 15.2095C10.5743 15.2095 11.1504 15.1096 11.707 14.9098C12.1863 14.7378 12.6202 14.5076 13.0072 14.2188L17.9651 19.1768ZM12.4692 12.4691L12.4692 12.4691C11.7889 13.1495 10.9642 13.4883 9.97984 13.4883C8.99549 13.4883 8.17079 13.1495 7.49051 12.4691L7.49048 12.4691C6.81007 11.7888 6.47129 10.9641 6.47129 9.97977C6.47129 8.99543 6.81007 8.17075 7.49048 7.49048L7.49051 7.49045C8.17079 6.81005 8.99549 6.47128 9.97984 6.47128C10.9642 6.47128 11.7889 6.81005 12.4692 7.49045L12.4692 7.49048C13.1496 8.17075 13.4884 8.99543 13.4884 9.97977C13.4884 10.9641 13.1496 11.7888 12.4692 12.4691Z" fill="#2552F2" stroke="#2552F2" strokeWidth="0.5"/>
</g>
</svg>
